HIERARCHY
ROOT joint_0
{
	OFFSET 0.000000 0.000000 0.000000
	CHANNELS 6 Xposition Yposition Zposition Zrotation Yrotation Xrotation 
	JOINT joint_1
	{
		OFFSET 11.612000 -0.419000 106.198000
		CHANNELS 3 Zrotation Yrotation Xrotation
		JOINT joint_2
		{
			OFFSET -1.708000 -1.022000 97.564090
			CHANNELS 3 Zrotation Yrotation Xrotation
			JOINT joint_3
			{
				OFFSET -4.121000 -1.538000 97.375000
				CHANNELS 3 Zrotation Yrotation Xrotation
				JOINT joint_4
				{
					OFFSET 5.442000 -2.123000 132.795900
					CHANNELS 3 Zrotation Yrotation Xrotation
					JOINT joint_5
					{
						OFFSET 21.935000 0.195000 82.975100
						CHANNELS 3 Zrotation Yrotation Xrotation
						End Site
						{
							OFFSET 0.000000 0.000000 0.000000
						}
					}
				}
				JOINT joint_6
				{
					OFFSET 4.262000 -30.048000 73.899900
					CHANNELS 3 Zrotation Yrotation Xrotation
					JOINT joint_7
					{
						OFFSET 9.731000 -136.810010 -21.963010
						CHANNELS 3 Zrotation Yrotation Xrotation
						JOINT joint_8
						{
							OFFSET 33.360000 -35.709000 -267.597900
							CHANNELS 3 Zrotation Yrotation Xrotation
							JOINT joint_9
							{
								OFFSET 36.156000 -29.759000 -240.558040
								CHANNELS 3 Zrotation Yrotation Xrotation
								End Site
								{
									OFFSET 0.000000 0.000000 0.000000
								}
							}
						}
					}
				}
				JOINT joint_10
				{
					OFFSET 2.027000 27.734000 74.914920
					CHANNELS 3 Zrotation Yrotation Xrotation
					JOINT joint_11
					{
						OFFSET -5.183000 136.784000 -23.604980
						CHANNELS 3 Zrotation Yrotation Xrotation
						JOINT joint_12
						{
							OFFSET 29.806000 37.229000 -267.809940
							CHANNELS 3 Zrotation Yrotation Xrotation
							JOINT joint_13
							{
								OFFSET 36.890000 46.524990 -237.772030
								CHANNELS 3 Zrotation Yrotation Xrotation
								End Site
								{
									OFFSET 0.000000 0.000000 0.000000
								}
							}
						}
					}
				}
			}
		}
	}
	JOINT joint_14
	{
		OFFSET -7.290000 -102.873990 -124.314940
		CHANNELS 3 Zrotation Yrotation Xrotation
		JOINT joint_15
		{
			OFFSET -15.466000 -19.909010 -438.533020
			CHANNELS 3 Zrotation Yrotation Xrotation
			JOINT joint_16
			{
				OFFSET -26.899000 -18.922000 -464.797000
				CHANNELS 3 Zrotation Yrotation Xrotation
				JOINT joint_17
				{
					OFFSET 179.329000 -12.011000 -84.174000
					CHANNELS 3 Zrotation Yrotation Xrotation
					End Site
					{
						OFFSET 0.000000 0.000000 0.000000
					}
				}
			}
		}
	}
	JOINT joint_18
	{
		OFFSET -6.225000 101.546000 -125.479980
		CHANNELS 3 Zrotation Yrotation Xrotation
		JOINT joint_19
		{
			OFFSET -13.973000 7.996000 -438.963010
			CHANNELS 3 Zrotation Yrotation Xrotation
			JOINT joint_20
			{
				OFFSET -44.294000 5.716000 -463.813970
				CHANNELS 3 Zrotation Yrotation Xrotation
				JOINT joint_21
				{
					OFFSET 178.505000 -4.689000 -85.139000
					CHANNELS 3 Zrotation Yrotation Xrotation
					End Site
					{
						OFFSET 0.000000 0.000000 0.000000
					}
				}
			}
		}
	}
}
MOTION
Frames: 7
Frame Time: 0.016667
-3423.716309 911.565857 1126.802002 10.472877 -3.833504 0.438340 -1.119012 7.726615 0.750947 -1.134630 -1.622575 -0.211455 -1.072850 1.563231 0.091829 -0.254654 0.158464 0.945483 0.000000 0.000000 0.000000 -4.439219 2.127187 1.218933 -0.275463 1.324033 -0.723843 1.197913 -6.082797 3.197682 0.000000 0.000000 0.000000 -1.053661 0.574801 0.266427 -0.829347 0.659778 0.966022 -3.118917 -8.356771 -8.564631 0.000000 0.000000 0.000000 -3.426702 3.915962 0.017390 -3.195933 -0.858096 -0.508292 -3.169553 -0.230078 -1.498296 0.000000 0.000000 0.000000 4.290471 3.552575 0.430425 4.224763 -2.687994 0.458371 4.180077 1.513212 2.036156 0.000000 0.000000 0.000000 
-3422.648193 911.672729 1126.829956 10.501107 -3.684724 0.452221 -1.119555 7.760730 0.772620 -1.129646 -1.625056 -0.205217 -1.067855 1.566642 0.085654 -0.243555 -0.045450 0.910078 0.000000 0.000000 0.000000 -4.462518 2.263237 1.254348 -0.303834 1.451731 -0.823339 1.220038 -6.172628 3.283471 0.000000 0.000000 0.000000 -1.101441 0.654697 0.216228 -0.818994 0.754825 1.020891 -3.138579 -8.491102 -8.521666 0.000000 0.000000 0.000000 -3.464742 3.837231 0.015655 -3.234637 -0.902635 -0.516072 -3.208564 -0.251909 -1.518182 0.000000 0.000000 0.000000 4.302118 3.454110 0.435999 4.237754 -2.698520 0.422607 4.189193 1.489829 2.040029 0.000000 0.000000 0.000000 
-3421.193115 911.780029 1126.918945 10.531507 -3.485997 0.470608 -1.118842 7.786088 0.793538 -1.121502 -1.611363 -0.193225 -1.060510 1.553983 0.075877 -0.228761 -0.296427 0.861740 0.000000 0.000000 0.000000 -4.466357 2.444031 1.314244 -0.338382 1.625266 -0.943534 1.223610 -6.148262 3.331469 0.000000 0.000000 0.000000 -1.198047 0.751662 0.141345 -0.795715 0.878431 1.074852 -3.130479 -8.575492 -8.380693 0.000000 0.000000 0.000000 -3.520511 3.731350 0.019480 -3.290859 -0.963800 -0.532696 -3.266097 -0.267012 -1.546340 0.000000 0.000000 0.000000 4.326015 3.320952 0.443029 4.263245 -2.710259 0.382213 4.210036 1.474790 2.049750 0.000000 0.000000 0.000000 
-3419.333252 911.986450 1127.032959 10.567970 -3.249140 0.486753 -1.119702 7.782987 0.832758 -1.114919 -1.587017 -0.196602 -1.053835 1.531250 0.076290 -0.216256 -0.581735 0.822087 0.000000 0.000000 0.000000 -4.516201 2.854908 1.141665 -0.408408 2.053029 -0.922045 1.415452 -7.404501 3.709174 0.000000 0.000000 0.000000 -1.258085 1.052255 0.164908 -0.830032 1.186386 1.041473 -3.321458 -9.448188 -8.467718 0.000000 0.000000 0.000000 -3.588521 3.606987 0.009772 -3.362245 -0.995098 -0.538433 -3.329924 -0.433333 -1.587610 0.000000 0.000000 0.000000 4.348199 3.165527 0.465100 4.288396 -2.685191 0.335214 4.226901 1.296552 2.053092 0.000000 0.000000 0.000000 
-3417.053223 912.410339 1127.161987 10.609200 -2.967435 0.494021 -1.124122 7.727800 0.908183 -1.113370 -1.560641 -0.234888 -1.049448 1.506167 0.104421 -0.209390 -0.883668 0.803238 0.000000 0.000000 0.000000 -4.669760 3.669615 0.694464 -0.569809 2.910313 -0.771130 1.929634 -11.000607 4.707317 0.000000 0.000000 0.000000 -1.203850 1.685495 0.276650 -0.964196 1.791998 0.898843 -3.844079 -11.627127 -8.954263 0.000000 0.000000 0.000000 -3.667546 3.465020 -0.026788 -3.448460 -0.989678 -0.527319 -3.395775 -0.827472 -1.645113 0.000000 0.000000 0.000000 4.361903 2.977689 0.511642 4.307287 -2.590520 0.280305 4.231448 0.831596 2.042722 0.000000 0.000000 0.000000 
-3414.363525 913.015808 1127.318970 10.652784 -2.635280 0.495201 -1.133532 7.625901 1.011634 -1.117643 -1.530793 -0.291153 -1.049668 1.479159 0.145830 -0.203744 -1.208132 0.787825 0.000000 0.000000 0.000000 -4.901545 4.808325 0.240921 -0.849950 4.088533 -0.740740 2.630412 -16.345652 6.171168 0.000000 0.000000 0.000000 -1.055644 2.567418 0.357098 -1.167424 2.633377 0.757127 -4.590264 -14.773300 -9.669846 0.000000 0.000000 0.000000 -3.759239 3.300167 -0.083267 -3.550102 -0.965267 -0.506426 -3.468210 -1.384571 -1.716609 0.000000 0.000000 0.000000 4.372421 2.751167 0.577124 4.324840 -2.441097 0.218571 4.229842 0.149176 2.023573 0.000000 0.000000 0.000000 
-3411.254883 913.555969 1127.451050 10.715676 -2.323052 0.498239 -1.151649 7.542097 1.122109 -1.130789 -1.495572 -0.341892 -1.059568 1.448708 0.183786 -0.186406 -1.607567 0.727935 0.000000 0.000000 0.000000 -5.112995 6.069534 -0.359460 -1.219340 5.402061 -0.825324 3.391974 -22.938343 7.863734 0.000000 0.000000 0.000000 -0.915167 3.657278 0.536621 -1.426867 3.695316 0.743316 -5.569397 -19.143788 -10.632244 0.000000 0.000000 0.000000 -3.851018 3.143805 -0.150651 -3.658684 -0.819158 -0.451406 -3.528115 -2.223526 -1.801007 0.000000 0.000000 0.000000 4.369632 2.576114 0.663138 4.330651 -2.274420 0.151893 4.214453 -0.701161 1.993367 0.000000 0.000000 0.000000 
